<svg xmlns="http://www.w3.org/2000/svg" viewBox="0 0 900 520" width="100%" height="100%">
  <defs>
    <linearGradient id="grad-client" x1="0%" y1="0%" x2="100%" y2="100%">
      <stop offset="0%" stop-color="#0284c7"/>
      <stop offset="100%" stop-color="#0369a1"/>
    </linearGradient>
    <linearGradient id="grad-server" x1="0%" y1="0%" x2="100%" y2="100%">
      <stop offset="0%" stop-color="#334155"/>
      <stop offset="100%" stop-color="#1e293b"/>
    </linearGradient>
    <linearGradient id="grad-db" x1="0%" y1="0%" x2="100%" y2="100%">
      <stop offset="0%" stop-color="#059669"/>
      <stop offset="100%" stop-color="#047857"/>
    </linearGradient>
    <filter id="shadow" x="-5%" y="-5%" width="110%" height="115%" filterUnits="userSpaceOnUse">
      <feDropShadow dx="0" dy="4" stdDeviation="6" flood-color="#000" flood-opacity="0.25"/>
    </filter>
  </defs>

  <rect width="900" height="520" fill="#090d16" rx="16"/>

  <text x="450" y="42" fill="#f8fafc" font-family="Arial, sans-serif" font-size="20" font-weight="bold" text-anchor="middle">
    MERN Job Board — 3-Tier System Architecture
  </text>
  <text x="450" y="66" fill="#94a3b8" font-family="Arial, sans-serif" font-size="12" text-anchor="middle">
    Decoupled React SPA ➔ Express REST API ➔ Mongoose ➔ MongoDB Atlas
  </text>

  <!-- Client Layer -->
  <g filter="url(#shadow)">
    <rect x="50" y="100" width="240" height="360" rx="12" fill="#0f172a" stroke="#0284c7" stroke-width="2"/>
    <rect x="50" y="100" width="240" height="44" rx="12" fill="url(#grad-client)"/>
    <text x="170" y="128" fill="#fff" font-family="Arial, sans-serif" font-size="15" font-weight="bold" text-anchor="middle">Client Tier (React SPA)</text>
    
    <rect x="70" y="165" width="200" height="42" rx="8" fill="#1e293b" stroke="#334155"/>
    <text x="170" y="191" fill="#f8fafc" font-family="Arial, sans-serif" font-size="13" text-anchor="middle">Pages &amp; Views (React Router)</text>

    <rect x="70" y="225" width="200" height="42" rx="8" fill="#1e293b" stroke="#334155"/>
    <text x="170" y="251" fill="#f8fafc" font-family="Arial, sans-serif" font-size="13" text-anchor="middle">Global AuthContext</text>

    <rect x="70" y="285" width="200" height="42" rx="8" fill="#1e293b" stroke="#334155"/>
    <text x="170" y="311" fill="#f8fafc" font-family="Arial, sans-serif" font-size="13" text-anchor="middle">UI Components &amp; Badges</text>

    <rect x="70" y="345" width="200" height="42" rx="8" fill="#1e293b" stroke="#38bdf8"/>
    <text x="170" y="371" fill="#38bdf8" font-family="Arial, sans-serif" font-size="13" font-weight="bold" text-anchor="middle">Axios (withCredentials: true)</text>

    <text x="170" y="430" fill="#64748b" font-family="Arial, sans-serif" font-size="11" text-anchor="middle">Hosted on Vercel</text>
  </g>

  <!-- Connect 1 -->
  <line x1="290" y1="280" x2="350" y2="280" stroke="#38bdf8" stroke-width="3" stroke-dasharray="4"/>
  <polygon points="350,275 360,280 350,285" fill="#38bdf8"/>
  <text x="325" y="265" fill="#38bdf8" font-family="Arial, sans-serif" font-size="10" text-anchor="middle">HTTPS</text>
  <text x="325" y="305" fill="#94a3b8" font-family="Arial, sans-serif" font-size="9" text-anchor="middle">+ Cookie</text>

  <!-- Server Layer -->
  <g filter="url(#shadow)">
    <rect x="360" y="100" width="260" height="360" rx="12" fill="#0f172a" stroke="#64748b" stroke-width="2"/>
    <rect x="360" y="100" width="260" height="44" rx="12" fill="url(#grad-server)"/>
    <text x="490" y="128" fill="#fff" font-family="Arial, sans-serif" font-size="15" font-weight="bold" text-anchor="middle">Express Application Server</text>

    <rect x="380" y="160" width="220" height="36" rx="6" fill="#1e293b" stroke="#334155"/>
    <text x="490" y="183" fill="#cbd5e1" font-family="Arial, sans-serif" font-size="11" text-anchor="middle">cors({ credentials: true }) + cookieParser</text>

    <rect x="380" y="205" width="220" height="36" rx="6" fill="#1e293b" stroke="#fbbf24"/>
    <text x="490" y="228" fill="#fbbf24" font-family="Arial, sans-serif" font-size="11" font-weight="bold" text-anchor="middle">requireAuth (Session Lookup)</text>

    <rect x="380" y="250" width="220" height="36" rx="6" fill="#1e293b" stroke="#38bdf8"/>
    <text x="490" y="273" fill="#38bdf8" font-family="Arial, sans-serif" font-size="11" text-anchor="middle">requireRole ('JOB_SEEKER' | 'EMPLOYER')</text>

    <rect x="380" y="295" width="220" height="42" rx="6" fill="#1e293b" stroke="#334155"/>
    <text x="490" y="315" fill="#f8fafc" font-family="Arial, sans-serif" font-size="11" font-weight="bold" text-anchor="middle">Route Controllers</text>
    <text x="490" y="330" fill="#94a3b8" font-family="Arial, sans-serif" font-size="10" text-anchor="middle">/api/auth │ /api/jobs │ /api/applications</text>

    <rect x="380" y="348" width="220" height="36" rx="6" fill="#1e293b" stroke="#059669"/>
    <text x="490" y="371" fill="#34d399" font-family="Arial, sans-serif" font-size="11" font-weight="bold" text-anchor="middle">Mongoose ODM Models</text>

    <text x="490" y="430" fill="#64748b" font-family="Arial, sans-serif" font-size="11" text-anchor="middle">Hosted on Render (Free Service)</text>
  </g>

  <!-- Connect 2 -->
  <line x1="620" y1="280" x2="670" y2="280" stroke="#10b981" stroke-width="3" stroke-dasharray="4"/>
  <polygon points="670,275 680,280 670,285" fill="#10b981"/>
  <text x="645" y="270" fill="#10b981" font-family="Arial, sans-serif" font-size="10" text-anchor="middle">Driver TLS</text>

  <!-- Database Layer -->
  <g filter="url(#shadow)">
    <rect x="680" y="100" width="180" height="360" rx="12" fill="#0f172a" stroke="#059669" stroke-width="2"/>
    <rect x="680" y="100" width="180" height="44" rx="12" fill="url(#grad-db)"/>
    <text x="770" y="128" fill="#fff" font-family="Arial, sans-serif" font-size="15" font-weight="bold" text-anchor="middle">MongoDB Atlas</text>

    <rect x="695" y="165" width="150" height="38" rx="6" fill="#1e293b" stroke="#059669"/>
    <text x="770" y="189" fill="#f8fafc" font-family="Arial, sans-serif" font-size="12" text-anchor="middle">users collection</text>

    <rect x="695" y="215" width="150" height="38" rx="6" fill="#1e293b" stroke="#059669"/>
    <text x="770" y="239" fill="#f8fafc" font-family="Arial, sans-serif" font-size="12" text-anchor="middle">jobs collection</text>

    <rect x="695" y="265" width="150" height="38" rx="6" fill="#1e293b" stroke="#059669"/>
    <text x="770" y="289" fill="#f8fafc" font-family="Arial, sans-serif" font-size="12" text-anchor="middle">applications</text>

    <rect x="695" y="315" width="150" height="38" rx="6" fill="#1e293b" stroke="#fbbf24"/>
    <text x="770" y="339" fill="#fbbf24" font-family="Arial, sans-serif" font-size="12" text-anchor="middle">sessions (TTL)</text>

    <text x="770" y="430" fill="#64748b" font-family="Arial, sans-serif" font-size="11" text-anchor="middle">M0 Free Cluster (512 MB)</text>
  </g>

  <!-- Strict Warning Banner -->
  <rect x="50" y="475" width="810" height="30" rx="6" fill="rgba(244, 63, 94, 0.1)" stroke="rgba(244, 63, 94, 0.3)"/>
  <text x="455" y="495" fill="#f43f5e" font-family="Arial, sans-serif" font-size="11" font-weight="bold" text-anchor="middle">
    &#x26A0; STRICT ARCHITECTURAL PRINCIPLE: Browser never connects directly to MongoDB (React ➔ Express ➔ Mongoose ➔ Atlas)
  </text>
</svg>